<svg xmlns="http://www.w3.org/2000/svg" xmlns:xlink="http://www.w3.org/1999/xlink" version="1.1" x="0px" y="0px" viewBox="0 0 512 640" enable-background="new 0 0 512 512" xml:space="preserve"><g><path fill="#000000" d="M460.213,407.686l-1.812-0.516c-26.469-7.109-35.422-13.938-47.218-18.422   c-28.031-10.688-42.156-19.375-49.25-25.562l-6.031-44.938c1.844-2.5,3.656-5.078,5.438-7.688   c25.688-12.594,29.203-32.311,24.094-48.654c5.156-15.664,8.125-32.062,8.125-48.703c0-7.281-0.422-14.344-1.219-21.203h13h10.656   c5.89,0,10.655-4.773,10.655-10.664s-4.766-10.672-10.655-10.672h-10.656c0-63.679-39.875-118.038-95.999-139.506v-9.82   c0-4.055-2.312-7.758-5.938-9.555c-0.969-0.484-23.984-11.781-47.406-11.781s-46.445,11.297-47.414,11.781   c-3.625,1.805-5.922,5.5-5.922,9.555l0.008,9.82c-56.132,21.468-96.007,75.827-96.007,139.506H95.997   c-5.89,0-10.664,4.781-10.664,10.672S90.107,192,95.997,192h10.664h12.992c-0.797,6.859-1.211,13.922-1.211,21.203   c0,16.641,2.961,33.039,8.109,48.703c-5.102,16.344-1.586,36.076,24.109,48.654c1.766,2.609,3.578,5.188,5.438,7.688l-6.023,44.938   c-7.102,6.188-21.219,14.875-49.273,25.562c-11.789,4.484-20.742,11.312-47.21,18.422l-1.812,0.516   c-24.093,7.969-40.304,30.312-40.304,55.531v48.781h201.858h42.664h42.656h201.873v-48.781   C500.525,437.998,484.307,415.654,460.213,407.686z M156.731,285.469c7.14,3.842,14.687,5.811,22.445,5.811   c18.383,0,32.945-10.811,44.656-19.49c3.875-2.875,7.539-5.586,10.742-7.484c1.828-1.086,3.023-1.609,3.727-1.859   c0.531,0.438,1.359,1.234,2.461,2.617c5.953,7.438,4.984,12.125,3.25,15.734c-4.672,9.701-21.312,20.186-40.062,20.186   c-1.406,0-2.812-0.078-4.172-0.188c-24.781-2.281-37.805-7.766-44.359-11.984c-7.258-4.654-8.734-8.998-9.172-10.998   C149.091,280.688,152.606,283.25,156.731,285.469z M365.745,277.812c-0.438,2-1.922,6.344-9.172,10.998   c-6.546,4.219-19.577,9.703-44.358,11.984c-1.359,0.109-2.766,0.188-4.172,0.188c-18.75,0-35.391-10.484-40.062-20.186   c-1.734-3.609-2.703-8.297,3.25-15.734c1.109-1.383,1.938-2.18,2.453-2.617c0.719,0.25,1.906,0.773,3.734,1.859   c3.203,1.898,6.859,4.609,10.734,7.484c11.719,8.68,26.281,19.49,44.656,19.49c7.766,0,15.312-1.969,22.452-5.811   C359.386,283.25,362.901,280.688,365.745,277.812z M308.043,322.311c2.047,0,4.094-0.094,6.125-0.281   c5.203-0.469,10.078-1.094,14.641-1.844c0.25,1.406,0.328,2.406,0.328,3.047c-0.078,1.141-1.547,5.609-7.422,12.953   c-5.562,6.938-13.547,14.656-23.094,22.281c-8.75,7.016-18.484,13.656-27.391,18.719c-7.836,4.438-12.898,6.438-15.234,7.156   c-2.336-0.719-7.398-2.719-15.234-7.156c-8.906-5.062-18.64-11.703-27.398-18.719c-9.539-7.625-17.516-15.344-23.078-22.281   c-5.875-7.344-7.352-11.812-7.43-12.953c0-0.641,0.07-1.641,0.32-3.047c4.562,0.75,9.438,1.375,14.648,1.844   c2.039,0.188,4.078,0.281,6.125,0.281c19.977,0,40.156-8.688,52.046-21.719C267.887,313.623,288.074,322.311,308.043,322.311z    M171.168,366.342l2.289-17.047c14.023,17.625,37.805,35.703,56.968,46.547l-34.179,24.625L171.168,366.342z M234.66,490.654   v-71.562l18.68-13.453c0.969,0.172,1.867,0.281,2.656,0.297c0.789-0.016,1.688-0.125,2.656-0.297l18.688,13.453v71.562H234.66z    M281.559,395.842c19.172-10.844,42.953-28.922,56.969-46.547l2.297,17.047l-25.078,54.125L281.559,395.842z M355.604,385.17   c13.641,9.484,31.328,17.094,46.047,22.766l-24.969,24.969l-29.53-29.5L355.604,385.17z M165.489,80.157   c10.945-10.945,23.523-19.648,37.188-25.914l0.008,41.805c0.008,5.891,4.781,10.664,10.672,10.664l0,0   c5.891-0.008,10.664-4.781,10.664-10.672l-0.023-67.726c7.82-3.07,20.453-6.977,32-6.977c12.172,0,24.812,4.172,32,7v66.327   c0,5.891,4.781,10.672,10.656,10.672c5.906,0,10.688-4.781,10.688-10.672V54.251c13.656,6.258,26.219,14.969,37.156,25.906   c24.187,24.18,37.499,56.32,37.499,90.507H127.997C127.997,136.478,141.31,104.337,165.489,80.157z M370.839,192   c0.906,6.875,1.375,13.945,1.375,21.203c0,8.203-0.875,16.586-2.562,25.023c-3.781-2.977-7.594-4.703-10.844-4.703   c-0.094,0-0.188,0-0.281,0c-16.562,0.508-24.53,17.695-24.53,17.695c2.469-0.758,4.891-1.102,7.141-1.102   c11.437,0,18.421,8.797,3.984,16.578c-4.219,2.281-8.312,3.242-12.312,3.242c-21.906,0-40.641-29.047-59.719-29.047   c-5.633-0.008-11.305,2.555-17.094,9.148c-5.789-6.594-11.461-9.148-17.102-9.148c-19.07,0-37.804,29.047-59.718,29.047   c-3.992,0-8.086-0.961-12.312-3.242c-14.414-7.781-7.445-16.578,3.992-16.578c2.25,0,4.68,0.344,7.148,1.102   c0,0-7.969-17.188-24.546-17.695c-0.086,0-0.18,0-0.273,0c-3.25,0-7.062,1.727-10.836,4.703c-1.695-8.438-2.57-16.82-2.57-25.023   c0-7.258,0.469-14.328,1.375-21.203H370.839z M156.388,385.17l8.445,18.234l-29.515,29.5l-24.977-24.969   C125.06,402.264,142.755,394.654,156.388,385.17z M32.802,490.654v-9.406l9.422,9.406H32.802z M72.388,490.654l-38.031-38.031   c3.391-11.312,12.094-20.578,23.773-24.562l1.195-0.344c13.43-3.625,22.805-7.188,30.203-10.438l30.703,30.719l-42.664,42.656   H72.388z M107.731,490.654l27.586-27.562l27.585,27.562H107.731z M198.247,490.654h-5.18l-42.664-42.656l23.976-23.984   l7.938,17.141c1.336,2.875,3.898,5.031,6.977,5.828c0.891,0.234,1.797,0.359,2.703,0.359c2.211,0,4.398-0.703,6.234-2.031   l15.102-10.875v41.141L198.247,490.654z M313.746,490.654l-15.094-15.078v-41.141l15.109,10.875   c1.828,1.328,4.016,2.031,6.234,2.031c0.906,0,1.812-0.125,2.703-0.359c3.078-0.797,5.641-2.953,6.984-5.828l7.938-17.125   l23.968,23.969l-42.655,42.656H313.746z M349.09,490.654l27.593-27.562l27.562,27.562H349.09z M434.432,490.654l-42.671-42.656   l30.702-30.719c7.406,3.25,16.781,6.812,30.203,10.438l1.203,0.344c11.672,3.984,20.375,13.25,23.766,24.562l-38.031,38.031   H434.432z M479.182,490.654h-9.406l9.406-9.406V490.654z"/><path fill="#000000" d="M248.457,461.779c-4.172,4.172-4.172,10.938,0,15.094c4.164,4.156,10.914,4.156,15.086,0   c4.164-4.156,4.164-10.922,0-15.094C259.371,457.623,252.621,457.623,248.457,461.779z"/><path fill="#000000" d="M248.457,419.123c-4.172,4.156-4.172,10.906,0,15.094c4.164,4.156,10.914,4.156,15.086,0   c4.164-4.188,4.164-10.938,0-15.094C259.371,414.967,252.621,414.967,248.457,419.123z"/></g><text x="0" y="527" fill="#000000" font-size="5px" font-weight="bold" font-family="'Helvetica Neue', Helvetica, Arial-Unicode, Arial, Sans-serif">Created by lastspark</text><text x="0" y="532" fill="#000000" font-size="5px" font-weight="bold" font-family="'Helvetica Neue', Helvetica, Arial-Unicode, Arial, Sans-serif">from the Noun Project</text></svg>